<?xml version="1.0" encoding="utf-8"?>
<!-- Generator: Adobe Illustrator 19.0.0, SVG Export Plug-In . SVG Version: 6.00 Build 0)  -->
<!DOCTYPE svg PUBLIC "-//W3C//DTD SVG 1.1//EN" "http://www.w3.org/Graphics/SVG/1.1/DTD/svg11.dtd">
<svg version="1.1" id="Layer_1" xmlns="http://www.w3.org/2000/svg" xmlns:xlink="http://www.w3.org/1999/xlink" x="0px" y="0px"
	 viewBox="0 0 150 55.017" style="enable-background:new 0 0 150 55.017;" xml:space="preserve">
<g>
	<g id="XMLID_344_">
		<g id="XMLID_365_">
			<path id="XMLID_386_" style="fill:#FFFFFF;" d="M0,7.923h3.272V9.99H3.33c0.497-0.842,1.167-1.454,2.009-1.837
				C6.181,7.77,7.091,7.578,8.066,7.578c1.052,0,2,0.187,2.842,0.56c0.842,0.373,1.56,0.885,2.153,1.536
				c0.593,0.651,1.043,1.416,1.349,2.296c0.306,0.88,0.459,1.828,0.459,2.842c0,1.014-0.163,1.962-0.488,2.842
				c-0.326,0.881-0.78,1.646-1.364,2.297c-0.584,0.651-1.287,1.163-2.11,1.536c-0.823,0.373-1.722,0.56-2.698,0.56
				c-0.651,0-1.225-0.067-1.722-0.201c-0.498-0.134-0.938-0.306-1.32-0.517c-0.383-0.21-0.708-0.435-0.976-0.675
				c-0.268-0.239-0.488-0.474-0.66-0.703H3.445v8.296H0V7.923z M11.425,14.812c0-0.536-0.091-1.052-0.273-1.55
				c-0.182-0.497-0.45-0.938-0.804-1.32c-0.354-0.383-0.78-0.689-1.277-0.919c-0.498-0.23-1.062-0.344-1.694-0.344
				s-1.196,0.115-1.694,0.344c-0.498,0.23-0.924,0.536-1.277,0.919c-0.354,0.383-0.622,0.823-0.804,1.32
				c-0.182,0.498-0.273,1.014-0.273,1.55c0,0.536,0.091,1.053,0.273,1.55c0.182,0.498,0.45,0.938,0.804,1.32
				c0.354,0.383,0.779,0.689,1.277,0.919c0.497,0.23,1.062,0.344,1.694,0.344s1.196-0.115,1.694-0.344
				c0.497-0.23,0.923-0.536,1.277-0.919c0.354-0.383,0.622-0.822,0.804-1.32C11.334,15.865,11.425,15.348,11.425,14.812z"/>
			<path id="XMLID_384_" style="fill:#FFFFFF;" d="M16.85,0h3.445v21.702H16.85V0z"/>
			<path id="XMLID_381_" style="fill:#FFFFFF;" d="M31.949,19.807h-0.086c-0.498,0.785-1.13,1.354-1.895,1.708
				c-0.766,0.354-1.608,0.531-2.526,0.531c-0.632,0-1.249-0.086-1.852-0.258c-0.603-0.172-1.139-0.431-1.608-0.775
				c-0.469-0.344-0.847-0.775-1.134-1.292c-0.287-0.517-0.431-1.12-0.431-1.809c0-0.746,0.134-1.382,0.402-1.909
				c0.268-0.526,0.627-0.966,1.077-1.32c0.449-0.354,0.971-0.636,1.564-0.847c0.593-0.21,1.21-0.368,1.852-0.474
				c0.641-0.105,1.287-0.172,1.938-0.201c0.65-0.029,1.263-0.043,1.837-0.043h0.861v-0.373c0-0.861-0.297-1.507-0.89-1.938
				c-0.593-0.431-1.349-0.646-2.268-0.646c-0.728,0-1.407,0.129-2.038,0.388c-0.632,0.258-1.177,0.608-1.636,1.048l-1.809-1.809
				c0.765-0.785,1.66-1.349,2.684-1.694c1.024-0.344,2.081-0.517,3.172-0.517c0.976,0,1.799,0.11,2.469,0.33
				c0.67,0.22,1.225,0.502,1.665,0.847c0.44,0.344,0.78,0.742,1.019,1.191c0.239,0.45,0.412,0.904,0.517,1.364
				c0.105,0.459,0.167,0.904,0.187,1.335c0.019,0.431,0.029,0.809,0.029,1.134v7.923h-3.1V19.807z M31.749,15.53h-0.718
				c-0.479,0-1.014,0.019-1.607,0.057c-0.593,0.039-1.153,0.129-1.679,0.273c-0.527,0.144-0.972,0.354-1.335,0.632
				c-0.364,0.278-0.545,0.665-0.545,1.163c0,0.326,0.072,0.598,0.215,0.818c0.144,0.22,0.33,0.407,0.56,0.56
				c0.23,0.153,0.488,0.263,0.775,0.33c0.287,0.067,0.574,0.1,0.861,0.1c1.186,0,2.062-0.282,2.627-0.847
				c0.564-0.564,0.847-1.335,0.847-2.311V15.53z"/>
			<path id="XMLID_379_" style="fill:#FFFFFF;" d="M35.595,7.923h3.789l3.847,9.559h0.057l3.445-9.559h3.588l-6.516,16.736
				c-0.249,0.65-0.522,1.22-0.818,1.708c-0.297,0.488-0.646,0.899-1.048,1.234c-0.402,0.335-0.876,0.584-1.421,0.746
				c-0.545,0.162-1.201,0.244-1.966,0.244c-0.9,0-1.78-0.115-2.641-0.344l0.431-3.1c0.268,0.095,0.55,0.177,0.847,0.244
				c0.296,0.067,0.598,0.1,0.904,0.1c0.421,0,0.775-0.039,1.062-0.115c0.287-0.077,0.531-0.196,0.732-0.359
				c0.201-0.163,0.368-0.373,0.502-0.632c0.134-0.258,0.277-0.57,0.431-0.933l0.66-1.636L35.595,7.923z"/>
			<path id="XMLID_376_" style="fill:#FFFFFF;" d="M65.105,7.923v12.545c0,1.244-0.153,2.368-0.459,3.373
				c-0.306,1.005-0.78,1.856-1.421,2.555c-0.641,0.698-1.45,1.239-2.426,1.622c-0.976,0.383-2.134,0.574-3.473,0.574
				c-1.282,0-2.498-0.163-3.646-0.488c-1.148-0.326-2.21-0.919-3.186-1.78l2.067-2.813c0.689,0.632,1.407,1.119,2.153,1.464
				c0.746,0.344,1.607,0.517,2.584,0.517c0.822,0,1.516-0.115,2.081-0.344c0.564-0.23,1.014-0.545,1.349-0.947
				c0.335-0.402,0.574-0.885,0.718-1.45c0.143-0.565,0.215-1.191,0.215-1.88v-1.005h-0.057c-0.498,0.67-1.158,1.173-1.981,1.507
				c-0.823,0.335-1.665,0.502-2.526,0.502c-1.033,0-1.971-0.187-2.813-0.56c-0.842-0.373-1.565-0.876-2.167-1.507
				c-0.603-0.632-1.067-1.378-1.392-2.239c-0.326-0.861-0.488-1.78-0.488-2.756c0-1.014,0.153-1.962,0.459-2.842
				c0.306-0.88,0.756-1.646,1.349-2.296c0.593-0.65,1.306-1.163,2.139-1.536c0.833-0.373,1.784-0.56,2.856-0.56
				c0.976,0,1.885,0.191,2.727,0.574c0.842,0.383,1.511,0.995,2.009,1.837h0.057V7.923H65.105z M57.756,10.679
				c-0.613,0-1.168,0.1-1.665,0.301c-0.498,0.201-0.924,0.479-1.277,0.833c-0.354,0.354-0.632,0.785-0.833,1.292
				c-0.201,0.507-0.301,1.067-0.301,1.679c0,0.555,0.1,1.072,0.301,1.55c0.201,0.479,0.483,0.9,0.847,1.263
				c0.363,0.364,0.794,0.651,1.292,0.861c0.497,0.211,1.033,0.316,1.607,0.316c0.632,0,1.201-0.105,1.708-0.316
				c0.507-0.21,0.937-0.493,1.292-0.847c0.354-0.354,0.627-0.78,0.818-1.277c0.191-0.497,0.287-1.033,0.287-1.608
				c0-1.206-0.364-2.182-1.091-2.928C60.014,11.052,59.019,10.679,57.756,10.679z"/>
			<path id="XMLID_374_" style="fill:#FFFFFF;" d="M67.573,7.923h3.445v2.182h0.057c0.383-0.804,0.928-1.425,1.636-1.866
				c0.708-0.44,1.521-0.66,2.44-0.66c0.21,0,0.416,0.019,0.617,0.057c0.201,0.039,0.406,0.086,0.617,0.144v3.33
				c-0.287-0.076-0.57-0.139-0.847-0.187c-0.278-0.048-0.55-0.072-0.818-0.072c-0.804,0-1.45,0.148-1.938,0.445
				c-0.488,0.297-0.861,0.636-1.119,1.019c-0.258,0.383-0.431,0.766-0.517,1.148c-0.086,0.383-0.129,0.67-0.129,0.861v7.377h-3.445
				V7.923z"/>
			<path id="XMLID_371_" style="fill:#FFFFFF;" d="M77.046,14.812c0-1.091,0.196-2.081,0.588-2.971
				c0.392-0.89,0.923-1.651,1.593-2.282c0.67-0.632,1.464-1.119,2.383-1.464c0.918-0.344,1.895-0.517,2.928-0.517
				c1.034,0,2.009,0.172,2.928,0.517c0.918,0.344,1.712,0.832,2.383,1.464c0.67,0.632,1.201,1.392,1.593,2.282
				c0.392,0.89,0.588,1.88,0.588,2.971c0,1.091-0.196,2.081-0.588,2.971c-0.392,0.89-0.924,1.651-1.593,2.282
				c-0.67,0.632-1.464,1.119-2.383,1.464c-0.919,0.345-1.895,0.517-2.928,0.517c-1.033,0-2.009-0.172-2.928-0.517
				c-0.919-0.344-1.713-0.832-2.383-1.464c-0.67-0.632-1.201-1.392-1.593-2.282C77.242,16.894,77.046,15.903,77.046,14.812z
				 M80.491,14.812c0,0.536,0.091,1.053,0.273,1.55c0.181,0.498,0.449,0.938,0.804,1.32c0.354,0.383,0.779,0.689,1.277,0.919
				c0.497,0.23,1.062,0.344,1.694,0.344s1.196-0.115,1.694-0.344c0.497-0.23,0.923-0.536,1.278-0.919
				c0.354-0.383,0.621-0.822,0.804-1.32c0.182-0.497,0.273-1.014,0.273-1.55c0-0.536-0.091-1.052-0.273-1.55
				c-0.182-0.497-0.45-0.938-0.804-1.32c-0.354-0.383-0.78-0.689-1.278-0.919c-0.498-0.23-1.062-0.344-1.694-0.344
				s-1.196,0.115-1.694,0.344c-0.498,0.23-0.924,0.536-1.277,0.919c-0.354,0.383-0.622,0.823-0.804,1.32
				C80.581,13.76,80.491,14.277,80.491,14.812z"/>
			<path id="XMLID_369_" style="fill:#FFFFFF;" d="M106.383,21.702h-3.272v-2.21h-0.058c-0.326,0.689-0.823,1.287-1.493,1.794
				c-0.67,0.507-1.579,0.761-2.727,0.761c-0.918,0-1.698-0.148-2.339-0.445c-0.641-0.296-1.163-0.698-1.565-1.206
				c-0.402-0.507-0.689-1.086-0.861-1.737c-0.172-0.65-0.258-1.33-0.258-2.038V7.923h3.445v6.976c0,0.383,0.019,0.809,0.057,1.277
				c0.038,0.469,0.139,0.909,0.301,1.32c0.162,0.412,0.411,0.756,0.746,1.034c0.335,0.278,0.808,0.416,1.421,0.416
				c0.574,0,1.057-0.095,1.45-0.287c0.392-0.191,0.717-0.449,0.976-0.775c0.258-0.325,0.445-0.698,0.56-1.119
				c0.115-0.421,0.172-0.861,0.172-1.321V7.923h3.445V21.702z"/>
			<path id="XMLID_366_" style="fill:#FFFFFF;" d="M108.995,7.923h3.272V9.99h0.057c0.497-0.842,1.167-1.454,2.009-1.837
				c0.842-0.383,1.751-0.574,2.727-0.574c1.052,0,2,0.187,2.842,0.56c0.842,0.373,1.56,0.885,2.153,1.536
				c0.593,0.651,1.043,1.416,1.349,2.296c0.306,0.88,0.459,1.828,0.459,2.842c0,1.014-0.163,1.962-0.488,2.842
				c-0.326,0.881-0.78,1.646-1.364,2.297c-0.584,0.651-1.287,1.163-2.11,1.536c-0.823,0.373-1.722,0.56-2.698,0.56
				c-0.651,0-1.225-0.067-1.722-0.201c-0.498-0.134-0.938-0.306-1.32-0.517c-0.383-0.21-0.708-0.435-0.976-0.675
				c-0.268-0.239-0.488-0.474-0.66-0.703h-0.086v8.296h-3.445V7.923z M120.42,14.812c0-0.536-0.091-1.052-0.273-1.55
				c-0.182-0.497-0.45-0.938-0.804-1.32c-0.354-0.383-0.78-0.689-1.277-0.919c-0.498-0.23-1.062-0.344-1.694-0.344
				s-1.196,0.115-1.694,0.344c-0.498,0.23-0.924,0.536-1.277,0.919c-0.354,0.383-0.622,0.823-0.804,1.32
				c-0.182,0.498-0.273,1.014-0.273,1.55c0,0.536,0.091,1.053,0.273,1.55c0.182,0.498,0.45,0.938,0.804,1.32
				c0.354,0.383,0.779,0.689,1.277,0.919c0.497,0.23,1.062,0.344,1.694,0.344s1.196-0.115,1.694-0.344
				c0.497-0.23,0.923-0.536,1.277-0.919c0.354-0.383,0.622-0.822,0.804-1.32C120.329,15.865,120.42,15.348,120.42,14.812z"/>
		</g>
		<g id="XMLID_345_">
			<path id="XMLID_362_" style="fill:#FFFFFF;" d="M85.904,46.061h-0.057c-0.498,0.842-1.168,1.455-2.009,1.837
				c-0.842,0.382-1.751,0.574-2.727,0.574c-1.072,0-2.024-0.187-2.856-0.56c-0.833-0.373-1.546-0.885-2.139-1.536
				c-0.593-0.65-1.043-1.416-1.349-2.297c-0.307-0.88-0.459-1.827-0.459-2.842c0-1.014,0.162-1.961,0.488-2.842
				c0.325-0.88,0.78-1.645,1.364-2.296c0.584-0.65,1.287-1.163,2.11-1.536c0.823-0.373,1.722-0.56,2.698-0.56
				c0.651,0,1.224,0.067,1.722,0.201c0.497,0.134,0.938,0.306,1.32,0.517c0.383,0.211,0.708,0.435,0.976,0.674
				c0.268,0.24,0.488,0.474,0.66,0.703h0.086v-9.674h3.445v21.702h-3.272V46.061z M77.751,41.238c0,0.536,0.091,1.053,0.273,1.55
				c0.181,0.498,0.449,0.938,0.804,1.32c0.354,0.383,0.779,0.689,1.277,0.918c0.497,0.23,1.062,0.345,1.694,0.345
				s1.196-0.115,1.694-0.345c0.497-0.23,0.923-0.536,1.278-0.918c0.354-0.383,0.621-0.823,0.804-1.32
				c0.182-0.497,0.273-1.014,0.273-1.55c0-0.536-0.091-1.052-0.273-1.55c-0.182-0.497-0.45-0.938-0.804-1.32
				c-0.354-0.383-0.78-0.689-1.278-0.919c-0.498-0.23-1.062-0.344-1.694-0.344s-1.196,0.115-1.694,0.344
				c-0.498,0.23-0.924,0.536-1.277,0.919c-0.354,0.383-0.622,0.823-0.804,1.32C77.842,40.186,77.751,40.703,77.751,41.238z"/>
			<path id="XMLID_359_" style="fill:#FFFFFF;" d="M91.501,29.67c0-0.555,0.205-1.038,0.617-1.45
				c0.411-0.411,0.933-0.617,1.564-0.617s1.163,0.196,1.593,0.588c0.431,0.392,0.646,0.885,0.646,1.478
				c0,0.593-0.215,1.087-0.646,1.478c-0.431,0.392-0.962,0.588-1.593,0.588s-1.153-0.205-1.564-0.617
				C91.707,30.708,91.501,30.225,91.501,29.67z M91.989,34.349h3.445v13.779h-3.445V34.349z"/>
			<path id="XMLID_356_" style="fill:#FFFFFF;" d="M112.428,34.349v12.545c0,1.244-0.153,2.368-0.459,3.373
				c-0.306,1.005-0.78,1.856-1.421,2.555c-0.641,0.698-1.45,1.239-2.426,1.622c-0.976,0.383-2.134,0.574-3.473,0.574
				c-1.282,0-2.498-0.163-3.646-0.488c-1.148-0.326-2.21-0.918-3.186-1.78l2.067-2.813c0.689,0.632,1.407,1.12,2.153,1.464
				c0.746,0.345,1.607,0.517,2.584,0.517c0.822,0,1.516-0.115,2.081-0.345c0.564-0.23,1.014-0.545,1.349-0.947
				c0.335-0.402,0.574-0.885,0.718-1.45c0.143-0.565,0.215-1.191,0.215-1.88V46.29h-0.057c-0.498,0.67-1.158,1.173-1.981,1.507
				c-0.823,0.335-1.665,0.502-2.526,0.502c-1.033,0-1.971-0.186-2.813-0.56c-0.842-0.373-1.565-0.876-2.167-1.507
				c-0.603-0.632-1.067-1.378-1.392-2.239c-0.326-0.861-0.488-1.78-0.488-2.756c0-1.014,0.153-1.961,0.459-2.842
				c0.306-0.88,0.756-1.645,1.349-2.296c0.593-0.65,1.306-1.163,2.139-1.536c0.833-0.373,1.784-0.56,2.856-0.56
				c0.976,0,1.885,0.191,2.727,0.574c0.842,0.383,1.511,0.995,2.009,1.837h0.057v-2.067H112.428z M105.079,37.105
				c-0.613,0-1.168,0.1-1.665,0.301c-0.498,0.201-0.924,0.478-1.277,0.832c-0.354,0.354-0.632,0.785-0.833,1.292
				c-0.201,0.507-0.301,1.067-0.301,1.679c0,0.555,0.1,1.072,0.301,1.55c0.201,0.479,0.483,0.9,0.847,1.263
				c0.363,0.364,0.794,0.651,1.292,0.861c0.497,0.211,1.033,0.316,1.607,0.316c0.632,0,1.201-0.105,1.708-0.316
				c0.507-0.21,0.937-0.492,1.292-0.847c0.354-0.354,0.627-0.779,0.818-1.277c0.191-0.497,0.287-1.033,0.287-1.607
				c0-1.206-0.364-2.182-1.091-2.928C107.337,37.478,106.342,37.105,105.079,37.105z"/>
			<path id="XMLID_353_" style="fill:#FFFFFF;" d="M114.609,29.67c0-0.555,0.205-1.038,0.617-1.45
				c0.411-0.411,0.933-0.617,1.564-0.617c0.632,0,1.163,0.196,1.593,0.588c0.431,0.392,0.646,0.885,0.646,1.478
				c0,0.593-0.215,1.087-0.646,1.478c-0.431,0.392-0.962,0.588-1.593,0.588c-0.632,0-1.153-0.205-1.564-0.617
				C114.815,30.708,114.609,30.225,114.609,29.67z M115.097,34.349h3.445v13.779h-3.445V34.349z"/>
			<path id="XMLID_351_" style="fill:#FFFFFF;" d="M120.178,37.277v-2.928h2.842v-3.99h3.445v3.99h3.789v2.928h-3.789v6.028
				c0,0.689,0.129,1.235,0.387,1.637c0.258,0.402,0.77,0.603,1.536,0.603c0.306,0,0.641-0.033,1.005-0.1
				c0.363-0.067,0.651-0.177,0.861-0.33v2.899c-0.364,0.172-0.809,0.291-1.335,0.359c-0.527,0.067-0.99,0.1-1.392,0.1
				c-0.918,0-1.67-0.1-2.253-0.301c-0.584-0.201-1.043-0.507-1.378-0.919c-0.335-0.411-0.565-0.923-0.689-1.536
				c-0.125-0.612-0.187-1.32-0.187-2.124v-6.315H120.178z"/>
			<path id="XMLID_348_" style="fill:#FFFFFF;" d="M140.987,46.233h-0.086c-0.498,0.785-1.13,1.354-1.895,1.708
				c-0.766,0.354-1.608,0.531-2.526,0.531c-0.632,0-1.249-0.086-1.852-0.258c-0.603-0.172-1.139-0.431-1.608-0.775
				c-0.469-0.345-0.847-0.775-1.134-1.292c-0.287-0.516-0.431-1.119-0.431-1.808c0-0.746,0.134-1.382,0.402-1.909
				c0.268-0.526,0.627-0.966,1.077-1.32c0.449-0.354,0.971-0.636,1.564-0.847c0.593-0.211,1.21-0.368,1.852-0.474
				c0.641-0.105,1.287-0.172,1.938-0.201c0.65-0.029,1.263-0.043,1.837-0.043h0.861v-0.373c0-0.861-0.297-1.507-0.89-1.938
				c-0.593-0.431-1.349-0.646-2.268-0.646c-0.728,0-1.407,0.129-2.038,0.387c-0.632,0.258-1.177,0.608-1.636,1.048l-1.809-1.808
				c0.765-0.784,1.66-1.349,2.684-1.694c1.024-0.345,2.081-0.517,3.172-0.517c0.976,0,1.799,0.11,2.469,0.33
				c0.67,0.22,1.225,0.502,1.665,0.847c0.44,0.345,0.78,0.742,1.019,1.191c0.239,0.45,0.412,0.904,0.517,1.364
				c0.105,0.459,0.167,0.904,0.187,1.335c0.019,0.431,0.029,0.809,0.029,1.134v7.923h-3.1V46.233z M140.786,41.956h-0.718
				c-0.479,0-1.014,0.019-1.607,0.057c-0.593,0.039-1.153,0.129-1.679,0.273c-0.527,0.144-0.972,0.354-1.335,0.632
				c-0.364,0.278-0.545,0.665-0.545,1.163c0,0.326,0.072,0.598,0.215,0.818c0.144,0.22,0.33,0.407,0.56,0.56
				c0.23,0.153,0.488,0.263,0.775,0.33c0.287,0.067,0.574,0.1,0.861,0.1c1.186,0,2.062-0.282,2.627-0.847
				c0.564-0.564,0.847-1.335,0.847-2.311V41.956z"/>
			<path id="XMLID_346_" style="fill:#FFFFFF;" d="M146.555,26.426H150v21.702h-3.445V26.426z"/>
		</g>
	</g>
</g>
<g id="XMLID_40_">
</g>
<g id="XMLID_41_">
</g>
<g id="XMLID_42_">
</g>
<g id="XMLID_43_">
</g>
<g id="XMLID_44_">
</g>
<g id="XMLID_45_">
</g>
<g id="XMLID_46_">
</g>
<g id="XMLID_47_">
</g>
<g id="XMLID_48_">
</g>
<g id="XMLID_49_">
</g>
<g id="XMLID_50_">
</g>
<g id="XMLID_51_">
</g>
<g id="XMLID_52_">
</g>
<g id="XMLID_53_">
</g>
<g id="XMLID_54_">
</g>
</svg>
